<svg width="124" height="45" viewBox="0 0 124 45" fill="none" xmlns="http://www.w3.org/2000/svg">
<g filter="url(#filter0_d_2046_1887)">
<path d="M27.3788 35.4748H4V0H27.3788V5.94635H10.7087V14.5355H25.4475V20.4819H10.7087V29.5285H27.3788V35.4748Z" fill="black"/>
<path d="M41.3354 35.4748C36.863 35.4748 34.4743 33.0353 34.4743 28.7153V14.1289H30.5609V8.94494H32.5938C34.5251 8.94494 35.135 8.03012 35.135 6.20047V1.67718H40.9797V8.94494H46.4178V14.1289H40.9797V30.2908H46.0112V35.4748H41.3354Z" fill="black"/>
<path d="M57.5493 35.4748H51.0439V8.94494H57.5493V14.4339H57.8035C58.4642 11.6386 60.5988 8.94494 64.8171 8.94494H66.2402V15.0946H64.2072C59.8364 15.0946 57.5493 16.3144 57.5493 19.2113V35.4748Z" fill="black"/>
<path d="M75.9899 36.0847C70.6027 36.0847 67.5532 32.9845 67.5532 28.2579C67.5532 22.8198 71.6699 20.1261 78.8869 20.1261H83.4102V18.1948C83.4102 15.2471 81.9363 13.5191 78.4803 13.5191C75.4309 13.5191 73.7029 15.0438 72.4323 16.8734L68.5697 13.4174C70.501 10.368 73.6012 8.33506 78.9377 8.33506C86.1038 8.33506 89.9156 11.7402 89.9156 17.7882V30.2908H92.5584V35.4748H88.9499C86.1546 35.4748 84.4266 33.6452 84.0201 30.9007H83.7151C82.8511 34.3059 79.9542 36.0847 75.9899 36.0847ZM78.1754 31.3581C81.0723 31.3581 83.4102 30.0367 83.4102 27.5464V24.0395H79.2426C75.8375 24.0395 74.1603 25.2085 74.1603 27.2922V28.1562C74.1603 30.2908 75.6342 31.3581 78.1754 31.3581Z" fill="black"/>
<path d="M103.312 35.4748H96.8069V8.94494H103.312V13.3666H103.566C104.634 10.5205 106.87 8.33506 110.987 8.33506C116.425 8.33506 119.474 12.096 119.474 18.7031V35.4748H112.969V19.3638C112.969 15.6028 111.698 13.6715 108.598 13.6715C105.904 13.6715 103.312 15.0946 103.312 17.9407V35.4748Z" fill="black"/>
</g>
<defs>
<filter id="filter0_d_2046_1887" x="0" y="0" width="123.474" height="44.0847" filterUnits="userSpaceOnUse" color-interpolation-filters="sRGB">
<feFlood flood-opacity="0" result="BackgroundImageFix"/>
<feColorMatrix in="SourceAlpha" type="matrix" values="0 0 0 0 0 0 0 0 0 0 0 0 0 0 0 0 0 0 127 0" result="hardAlpha"/>
<feOffset dy="4"/>
<feGaussianBlur stdDeviation="2"/>
<feComposite in2="hardAlpha" operator="out"/>
<feColorMatrix type="matrix" values="0 0 0 0 0 0 0 0 0 0 0 0 0 0 0 0 0 0 0.25 0"/>
<feBlend mode="normal" in2="BackgroundImageFix" result="effect1_dropShadow_2046_1887"/>
<feBlend mode="normal" in="SourceGraphic" in2="effect1_dropShadow_2046_1887" result="shape"/>
</filter>
</defs>
</svg>
